<svg xmlns="http://www.w3.org/2000/svg" viewBox="0 0 48 48" width="48" height="48">
  <defs>
    <linearGradient id="g" x1="0" y1="0" x2="1" y2="1">
      <stop offset="0" stop-color="#31afd4"/><stop offset="1" stop-color="#1b7f9e"/>
    </linearGradient>
  </defs>
  <rect x="1" y="1" width="46" height="46" rx="13" fill="url(#g)"/>
  <path d="M8 31c3.2 0 3.2-3 6.4-3s3.2 3 6.4 3 3.2-3 6.4-3 3.2 3 6.4 3 3.2-3 6.4-3" fill="none" stroke="#fff" stroke-width="2.4" stroke-linecap="round" opacity=".92"/>
  <path d="M8 36.5c3.2 0 3.2-3 6.4-3s3.2 3 6.4 3 3.2-3 6.4-3 3.2 3 6.4 3 3.2-3 6.4-3" fill="none" stroke="#fff" stroke-width="2.2" stroke-linecap="round" opacity=".55"/>
  <rect x="18" y="8" width="12" height="19" rx="3.2" fill="#fff" opacity=".96"/>
  <rect x="20" y="11" width="8" height="11" rx="1.6" fill="#04222c"/>
  <circle cx="24" cy="24.6" r="1.1" fill="#04222c"/>
</svg>
